<svg id="SvgjsSvg1001" width="288" height="288" xmlns="http://www.w3.org/2000/svg" version="1.1" xmlns:xlink="http://www.w3.org/1999/xlink" xmlns:svgjs="http://svgjs.com/svgjs"><defs id="SvgjsDefs1002"></defs><g id="SvgjsG1008" transform="matrix(1,0,0,1,0,0)"><svg xmlns="http://www.w3.org/2000/svg" width="288" height="288" viewBox="0 0 32 32"><path fill="#db1cff" d="M19.62 11.558l-3.203 2.98-2.972-5.995 1.538-3.448c.4-.7 1.024-.692 1.414 0z" class="colorffa000 svgShape"></path><path fill="#db1cff" d="M13.445 8.543l2.972 5.995-11.97 11.135z" class="colorf57f17 svgShape"></path><path fill="#db1cff" d="M23.123 7.003c.572-.55 1.164-.362 1.315.417l3.116 18.105-10.328 6.2c-.36.2-1.32.286-1.32.286s-.874-.104-1.207-.3L4.447 25.673z" class="colorffca28 svgShape"></path><path fill="#db1cff" d="M13.445 8.543l-8.997 17.13L8.455.638c.148-.78.592-.855.988-.167z" class="colorffa000 svgShape"></path></svg></g></svg>